HIERARCHY
ROOT Hips
{
	OFFSET 0.00000 0.00000 0.00000
	CHANNELS 6 Xposition Yposition Zposition Zrotation Yrotation Xrotation 
	JOINT LHipJoint
	{
		OFFSET 0 0 0
		CHANNELS 3 Zrotation Yrotation Xrotation
		JOINT LeftUpLeg
		{
			OFFSET 1.74857 -1.85566 0.69197
			CHANNELS 3 Zrotation Yrotation Xrotation
			JOINT LeftLeg
			{
				OFFSET 2.40003 -6.59403 0.00000
				CHANNELS 3 Zrotation Yrotation Xrotation
				JOINT LeftFoot
				{
					OFFSET 2.82169 -7.75254 0.00000
					CHANNELS 3 Zrotation Yrotation Xrotation
					JOINT LeftToeBase
					{
						OFFSET 0.16466 -0.45240 2.26890
						CHANNELS 3 Zrotation Yrotation Xrotation
						End Site
						{
							OFFSET 0.00000 -0.00000 1.16486
						}
					}
				}
			}
		}
	}
	JOINT RHipJoint
	{
		OFFSET 0 0 0
		CHANNELS 3 Zrotation Yrotation Xrotation
		JOINT RightUpLeg
		{
			OFFSET -1.64169 -1.85566 0.69197
			CHANNELS 3 Zrotation Yrotation Xrotation
			JOINT RightLeg
			{
				OFFSET -2.41814 -6.64379 0.00000
				CHANNELS 3 Zrotation Yrotation Xrotation
				JOINT RightFoot
				{
					OFFSET -2.80588 -7.70911 0.00000
					CHANNELS 3 Zrotation Yrotation Xrotation
					JOINT RightToeBase
					{
						OFFSET -0.19098 -0.52472 2.25401
						CHANNELS 3 Zrotation Yrotation Xrotation
						End Site
						{
							OFFSET -0.00000 -0.00000 1.16333
						}
					}
				}
			}
		}
	}
	JOINT LowerBack
	{
		OFFSET 0 0 0
		CHANNELS 3 Zrotation Yrotation Xrotation
		JOINT Spine
		{
			OFFSET -0.02828 2.14690 -0.11061
			CHANNELS 3 Zrotation Yrotation Xrotation
			JOINT Spine1
			{
				OFFSET -0.00167 2.15299 0.00759
				CHANNELS 3 Zrotation Yrotation Xrotation
				JOINT Neck
				{
					OFFSET 0 0 0
					CHANNELS 3 Zrotation Yrotation Xrotation
					JOINT Neck1
					{
						OFFSET -0.09296 1.90118 0.07197
						CHANNELS 3 Zrotation Yrotation Xrotation
						JOINT Head
						{
							OFFSET 0.08490 1.89526 -0.24604
							CHANNELS 3 Zrotation Yrotation Xrotation
							End Site
							{
								OFFSET 0.03186 1.92109 -0.09483
							}
						}
					}
				}
				JOINT LeftShoulder
				{
					OFFSET 0 0 0
					CHANNELS 3 Zrotation Yrotation Xrotation
					JOINT LeftArm
					{
						OFFSET 3.21569 1.44644 -0.03720
						CHANNELS 3 Zrotation Yrotation Xrotation
						JOINT LeftForeArm
						{
							OFFSET 5.47651 -0.00000 -0.00000
							CHANNELS 3 Zrotation Yrotation Xrotation
							JOINT LeftHand
							{
								OFFSET 3.09058 -0.00000 -0.00000
								CHANNELS 3 Zrotation Yrotation Xrotation
								JOINT LeftFingerBase
								{
									OFFSET 0 0 0
									CHANNELS 3 Zrotation Yrotation Xrotation
									JOINT LeftHandIndex1
									{
										OFFSET 0.77161 -0.00000 -0.00000
										CHANNELS 3 Zrotation Yrotation Xrotation
										End Site
										{
											OFFSET 0.62209 -0.00000 -0.00000
										}
									}
								}
								JOINT LThumb
								{
									OFFSET 0 0 0
									CHANNELS 3 Zrotation Yrotation Xrotation
									End Site
									{
										OFFSET 0.63159 -0.00000 0.63159
									}
								}
							}
						}
					}
				}
				JOINT RightShoulder
				{
					OFFSET 0 0 0
					CHANNELS 3 Zrotation Yrotation Xrotation
					JOINT RightArm
					{
						OFFSET -3.38693 1.28904 -0.07093
						CHANNELS 3 Zrotation Yrotation Xrotation
						JOINT RightForeArm
						{
							OFFSET -5.14182 -0.00000 -0.00000
							CHANNELS 3 Zrotation Yrotation Xrotation
							JOINT RightHand
							{
								OFFSET -3.35565 -0.00000 -0.00000
								CHANNELS 3 Zrotation Yrotation Xrotation
								JOINT RightFingerBase
								{
									OFFSET 0 0 0
									CHANNELS 3 Zrotation Yrotation Xrotation
									JOINT RightHandIndex1
									{
										OFFSET -0.80104 -0.00000 -0.00000
										CHANNELS 3 Zrotation Yrotation Xrotation
										End Site
										{
											OFFSET -0.64582 -0.00000 -0.00000
										}
									}
								}
								JOINT RThumb
								{
									OFFSET 0 0 0
									CHANNELS 3 Zrotation Yrotation Xrotation
									End Site
									{
										OFFSET -0.65568 -0.00000 0.65568
									}
								}
							}
						}
					}
				}
			}
		}
	}
}
MOTION
Frames: 16
Frame Time: .0083333
-0.3478 18.0898 -1.9855 1.0007 0.5359 -0.4399 0.0000 0.0000 0.0000 -19.6947 -2.9627 -2.6753 0.9978 6.3568 17.8232 0.6310 6.3338 -18.6334 0.5045 -4.5531 -12.6381 0.0000 0.0000 0.0000 18.3408 5.6581 -4.2850 -1.1754 -6.8812 19.3640 -0.2721 -9.7299 -17.7031 -0.2592 3.2754 -9.0464 0.3501 2.0722 5.6977 0.0011 2.7771 1.9527 -0.3775 1.3873 -1.1657 -6.1284 -4.2687 -0.6159 4.4997 -5.8005 6.1752 2.3822 -2.9230 2.4312 -0.0000 0.0000 0.0000 -56.2022 -44.2819 34.4040 119.9511 -56.3230 -85.6182 -0.0000 -0.0000 14.1306 35.8594 21.8921 15.0831 -7.1250 0.0000 -0.0000 7.8137 56.1823 2.1523 -0.0000 0.0000 0.0000 54.9669 43.4266 27.1642 -115.0273 57.4957 -81.4920 0.0000 0.0000 19.6156 -44.5364 22.8095 -20.8791 7.1250 -0.0000 -0.0000 -9.3182 0.2068 -9.4778
-0.3492 18.0817 -1.9966 1.0015 0.5568 -0.4604 0.0000 0.0000 0.0000 -19.6737 -2.9561 -2.9214 1.0363 6.4746 18.1678 0.6519 6.1539 -18.7196 0.4834 -4.4584 -12.3700 0.0000 0.0000 0.0000 18.3280 5.5913 -4.5175 -1.2118 -6.9832 19.6655 -0.2863 -9.5990 -17.7308 -0.2670 3.3241 -9.1823 0.3783 2.1151 5.6781 0.0465 2.8358 2.1338 -0.3451 1.4176 -0.9692 -6.3307 -4.2740 -0.3998 4.6046 -5.8187 6.1077 2.4581 -2.9365 2.3832 -0.0000 -0.0000 0.0000 -58.0772 -43.1147 36.2208 118.6517 -56.6587 -84.5347 -0.0000 -0.0000 14.0900 35.8360 21.6881 14.9430 -7.1250 0.0000 -0.0000 7.8036 55.9412 2.1038 -0.0000 -0.0000 0.0000 56.8438 42.1705 28.7381 -113.7154 57.7644 -80.3840 0.0000 0.0000 20.0378 -44.0774 22.8844 -20.6337 7.1250 -0.0000 -0.0000 -9.0341 0.1247 -9.1684
-0.3496 18.0752 -2.0042 1.0022 0.5839 -0.4866 0.0000 0.0000 0.0000 -19.6537 -2.8453 -3.1352 1.0657 6.5630 18.4271 0.6520 6.0122 -18.6140 0.4929 -4.5012 -12.4912 0.0000 0.0000 0.0000 18.3018 5.5045 -4.7669 -1.2544 -7.1004 20.0130 -0.3105 -9.4134 -17.8208 -0.2659 3.3172 -9.1631 0.3823 2.1114 5.8544 0.0822 2.8320 2.1762 -0.3167 1.4154 -1.0254 -6.3660 -4.2365 -0.1938 4.5783 -5.7791 6.1791 2.4605 -2.9208 2.3673 0.0000 -0.0000 0.0000 -59.7491 -41.7666 37.8469 116.9649 -57.0659 -83.1222 -0.0000 -0.0000 14.3940 35.5093 21.6110 14.7243 -7.1250 0.0000 -0.0000 7.4368 55.7758 1.9742 0.0000 -0.0000 0.0000 58.8066 40.8911 30.3893 -112.0558 58.0797 -78.9778 0.0000 0.0000 20.3947 -43.4899 23.0244 -20.3564 7.1250 -0.0000 -0.0000 -8.6598 0.0767 -8.7721
-0.3494 18.0675 -2.0103 1.1034 0.6403 -0.5853 0.0000 0.0000 0.0000 -19.7701 -2.8027 -3.2021 1.0926 6.6428 18.6613 0.6489 5.9546 -18.5373 0.5085 -4.5711 -12.6892 0.0000 0.0000 0.0000 18.1627 5.3384 -4.9209 -1.2956 -7.2115 20.3436 -0.3357 -9.2376 -17.9338 -0.2699 3.3421 -9.2327 0.2587 2.0881 5.9804 0.1158 2.7943 2.3353 -0.2121 1.3965 -0.9398 -6.4248 -4.2028 -0.0788 4.5440 -5.7386 6.2514 2.4629 -2.9042 2.3689 -0.0000 -0.0000 0.0000 -61.2305 -40.6073 39.2170 115.0324 -57.4946 -81.4964 -0.0000 -0.0000 14.5009 35.3283 21.8895 14.8019 -7.1250 0.0000 -0.0000 7.2044 56.0539 1.9607 -0.0000 -0.0000 0.0000 60.5542 39.7768 31.7939 -110.1347 58.4113 -77.3442 0.0000 0.0000 20.6415 -43.0280 23.1599 -20.1590 7.1250 -0.0000 -0.0000 -8.3595 0.0718 -8.4604
-0.3489 18.0610 -2.0139 1.3079 0.6973 -0.6917 0.0000 0.0000 0.0000 -20.0176 -2.8203 -3.1967 1.1171 6.7143 18.8718 0.6604 5.8806 -18.6055 0.4981 -4.5245 -12.5572 0.0000 0.0000 0.0000 17.9037 5.1313 -5.0433 -1.3345 -7.3148 20.6514 -0.3652 -9.0053 -18.0411 -0.2694 3.3389 -9.2238 0.0660 2.1166 5.9905 0.1093 2.8210 2.5691 -0.1075 1.4096 -0.7139 -6.4883 -4.2156 0.0090 4.5369 -5.7602 6.3194 2.4729 -2.9177 2.3793 0.0000 0.0000 0.0000 -62.7345 -39.6979 40.5720 112.8928 -57.9241 -79.6876 -0.0000 -0.0000 14.1386 35.1985 22.2423 14.9495 -7.1250 0.0000 -0.0000 7.0194 56.4281 1.9737 0.0000 0.0000 0.0000 62.0017 38.7235 32.7706 -108.0437 58.7333 -75.5599 0.0000 0.0000 20.5626 -42.4287 23.3784 -19.9354 7.1250 -0.0000 -0.0000 -7.9599 0.1188 -8.0545
-0.3492 18.0547 -2.0215 1.3777 0.7026 -0.8168 0.0000 0.0000 0.0000 -20.1108 -2.8395 -3.1897 1.1421 6.7865 19.0844 0.6679 5.8671 -18.6754 0.4898 -4.4873 -12.4519 0.0000 0.0000 0.0000 17.8187 5.0426 -5.1313 -1.3729 -7.4151 20.9510 -0.3822 -8.8732 -18.1045 -0.2663 3.3194 -9.1693 0.0169 2.1483 6.1175 0.1577 2.8608 2.7666 -0.0334 1.4292 -0.5862 -6.6217 -4.2237 0.0710 4.4973 -5.7711 6.4106 2.4846 -2.9282 2.4029 -0.0000 0.0000 0.0000 -64.1277 -38.7685 41.6996 110.5349 -58.3451 -77.6849 -0.0000 -0.0000 13.5940 33.7447 22.7695 14.4963 -7.1250 0.0000 -0.0000 5.2820 56.6855 1.5159 -0.0000 0.0000 0.0000 63.2300 37.7167 33.6797 -105.6489 59.0542 -73.5093 0.0000 0.0000 20.2837 -41.6637 23.2685 -19.3675 7.1250 -0.0000 -0.0000 -7.5380 -0.2820 -7.5667
-0.3504 18.0478 -2.0317 1.3478 0.6832 -0.9523 0.0000 0.0000 0.0000 -20.0832 -2.8488 -3.2011 1.1704 6.8673 19.3228 0.6772 5.8122 -18.7332 0.4501 -4.3042 -11.9340 0.0000 0.0000 0.0000 17.8503 5.0142 -5.2099 -1.4115 -7.5144 21.2484 -0.3949 -8.7905 -18.1693 -0.2720 3.3551 -9.2689 0.0806 2.1256 6.4394 0.2112 2.8345 2.8442 -0.0237 1.4160 -0.6844 -6.8128 -4.1912 0.1397 4.4896 -5.7331 6.6870 2.5188 -2.9164 2.4880 0.0000 -0.0000 0.0000 -65.2268 -37.7528 42.5422 107.8111 -58.7667 -75.3610 -0.0000 -0.0000 12.9509 32.2222 23.2645 13.9793 -7.1250 0.0000 -0.0000 3.4582 56.8863 1.0082 0.0000 -0.0000 0.0000 64.5941 36.7199 34.7773 -102.8658 59.3652 -71.1183 0.0000 0.0000 20.0150 -41.0318 23.0636 -18.8256 7.1250 -0.0000 -0.0000 -7.2124 -0.7419 -7.1757
-0.3525 18.0400 -2.0431 1.3519 0.6929 -1.0563 0.0000 0.0000 0.0000 -20.0798 -2.8522 -3.3053 1.2065 6.9684 19.6218 0.6928 5.7334 -18.8402 0.4406 -4.2593 -11.8072 0.0000 0.0000 0.0000 17.8443 4.9853 -5.3149 -1.4469 -7.6040 21.5177 -0.4059 -8.7151 -18.2212 -0.2612 3.2883 -9.0825 0.1988 2.1304 6.8197 0.1411 2.8474 2.8561 -0.1777 1.4231 -0.8734 -6.7524 -4.1898 0.2592 4.4972 -5.7466 6.9930 2.5114 -2.9245 2.5675 0.0000 -0.0000 0.0000 -66.0204 -36.8308 43.4925 105.2997 -59.0968 -73.2098 -0.0000 -0.0000 12.0067 31.3344 23.9642 13.8898 -7.1250 0.0000 -0.0000 2.2952 57.4566 0.7004 0.0000 -0.0000 0.0000 65.9793 35.6731 35.6614 -99.8972 59.6266 -68.5605 0.0000 0.0000 19.6145 -40.3327 22.9801 -18.3392 7.1250 -0.0000 -0.0000 -6.8182 -1.0730 -6.7375
-0.3546 18.0299 -2.0557 1.3875 0.7266 -1.1410 0.0000 0.0000 0.0000 -20.1105 -2.8869 -3.4396 1.2447 7.0739 19.9346 0.7070 5.6468 -18.9260 0.4465 -4.2874 -11.8867 0.0000 0.0000 0.0000 17.8041 4.9695 -5.4300 -1.4825 -7.6928 21.7849 -0.4195 -8.6549 -18.3181 -0.2584 3.2707 -9.0335 0.2856 2.1279 7.1755 0.0364 2.8485 2.8782 -0.3477 1.4242 -1.0381 -6.6184 -4.1988 0.2880 4.5167 -5.7716 7.3260 2.4925 -2.9349 2.6712 -0.0000 0.0000 0.0000 -66.6469 -35.9500 44.3552 103.0209 -59.3496 -71.2518 -0.0000 -0.0000 11.0061 30.3220 25.1792 13.9733 -7.1250 0.0000 -0.0000 0.8136 58.5517 0.2696 -0.0000 0.0000 0.0000 67.3022 34.7042 36.4269 -96.8164 59.8237 -65.8997 0.0000 0.0000 19.1321 -39.5423 22.6477 -17.6355 7.1250 -0.0000 -0.0000 -6.4199 -1.7197 -6.2641
-0.3574 18.0223 -2.0693 1.3548 0.7351 -1.1903 0.0000 0.0000 0.0000 -20.0555 -2.9208 -3.6106 1.2825 7.1766 20.2395 0.7189 5.5899 -19.0091 0.4629 -4.3641 -12.1034 0.0000 0.0000 0.0000 17.8412 4.9561 -5.5953 -1.5187 -7.7819 22.0534 -0.4297 -8.6007 -18.3810 -0.2778 3.3899 -9.3661 0.2556 2.1200 7.3365 0.0942 2.8368 3.0012 -0.2743 1.4181 -1.0049 -6.6406 -4.1996 0.3468 4.5215 -5.7789 7.4739 2.4988 -2.9403 2.7120 0.0000 0.0000 0.0000 -67.3685 -35.2785 44.8700 100.3932 -59.5879 -68.9883 -0.0000 -0.0000 10.0644 29.0214 25.8676 13.6070 -7.1250 0.0000 -0.0000 -0.9046 58.9857 -0.3092 0.0000 0.0000 0.0000 68.1980 34.0145 37.0240 -93.6934 59.9484 -63.1980 0.0000 0.0000 18.3527 -38.4888 22.1385 -16.6801 7.1250 -0.0000 -0.0000 -5.8937 -2.6419 -5.6462
-0.3592 18.0160 -2.0835 1.3560 0.6995 -1.2701 0.0000 0.0000 0.0000 -20.0440 -2.8939 -3.7611 1.3209 7.2791 20.5448 0.7226 5.5767 -19.0379 0.4996 -4.5313 -12.5764 0.0000 0.0000 0.0000 17.8373 4.9714 -5.7230 -1.5550 -7.8701 22.3203 -0.4392 -8.5150 -18.4063 -0.2786 3.3948 -9.3800 0.1403 2.1402 7.2872 0.2158 2.8569 3.2958 -0.0773 1.4277 -0.6859 -6.7499 -4.2019 0.4027 4.5171 -5.7811 7.4231 2.5184 -2.9446 2.6891 0.0000 -0.0000 0.0000 -68.1482 -34.9073 45.1899 97.9298 -59.7611 -66.8619 -0.0000 -0.0000 8.8453 27.3251 25.9362 12.7342 -7.1250 0.0000 -0.0000 -2.8676 58.6549 -0.9579 0.0000 -0.0000 0.0000 68.7542 33.6484 37.3890 -90.7192 59.9980 -60.6228 0.0000 0.0000 17.2796 -37.0994 21.7157 -15.6329 7.1250 -0.0000 -0.0000 -5.1362 -3.5372 -4.8293
-0.3599 18.0095 -2.0964 1.3246 0.6886 -1.3774 0.0000 0.0000 0.0000 -19.9970 -2.8592 -3.8951 1.3622 7.3874 20.8683 0.7324 5.4727 -19.0668 0.4965 -4.5175 -12.5373 0.0000 0.0000 0.0000 17.8604 4.9179 -5.8301 -1.5906 -7.9556 22.5792 -0.4573 -8.3697 -18.4711 -0.2706 3.3464 -9.2446 0.2494 2.1716 7.2178 0.2237 2.9046 3.6200 -0.1223 1.4537 -0.3083 -6.7299 -4.2498 0.4770 4.5528 -5.8491 7.3001 2.5264 -2.9769 2.6391 0.0000 -0.0000 0.0000 -68.6253 -34.6540 45.5925 95.9928 -59.8639 -65.1875 -0.0000 -0.0000 7.4311 25.9948 26.2856 12.1854 -7.1250 0.0000 -0.0000 -4.5069 58.7124 -1.5128 0.0000 -0.0000 0.0000 69.3754 33.2507 37.6673 -88.1109 59.9865 -58.3641 0.0000 0.0000 16.3216 -35.8662 21.0033 -14.5276 7.1250 -0.0000 -0.0000 -4.5134 -4.6972 -4.1417
-0.3619 18.0015 -2.1096 1.3257 0.6531 -1.4837 0.0000 0.0000 0.0000 -19.9735 -2.7756 -4.0454 1.4025 7.4914 21.1796 0.7472 5.3094 -19.1060 0.4810 -4.4476 -12.3395 0.0000 0.0000 0.0000 17.8593 4.8952 -5.9437 -1.6294 -8.0473 22.8578 -0.4715 -8.2628 -18.5306 -0.2665 3.3210 -9.1738 0.1630 2.1880 7.5300 0.3042 2.9218 3.7071 -0.0038 1.4605 -0.3993 -6.7649 -4.2913 0.4070 4.4406 -5.8973 7.5562 2.4913 -3.0050 2.7383 0.0000 -0.0000 0.0000 -69.1117 -33.9944 46.0965 94.3262 -59.9292 -63.7457 -0.0000 -0.0000 6.5891 25.7567 27.1888 12.4325 -7.1250 0.0000 -0.0000 -5.1673 59.6038 -1.8455 0.0000 -0.0000 0.0000 69.8930 32.6055 38.1567 -85.8867 59.9360 -56.4385 0.0000 0.0000 15.3219 -34.8249 20.1622 -13.4838 7.1250 -0.0000 -0.0000 -4.0143 -5.9313 -3.5871
-0.3638 17.9926 -2.1260 1.2919 0.6132 -1.5226 0.0000 0.0000 0.0000 -19.9068 -2.7020 -4.2834 1.4434 7.5951 21.4907 0.7611 5.1908 -19.1665 0.4803 -4.4444 -12.3303 0.0000 0.0000 0.0000 17.8864 4.9065 -6.1563 -1.6722 -8.1470 23.1614 -0.4844 -8.1567 -18.5753 -0.2584 3.2706 -9.0330 0.1636 2.1999 7.7907 0.3536 2.9381 3.8060 0.0369 1.4681 -0.4435 -6.8302 -4.3253 0.3100 4.4086 -5.9357 7.6884 2.4892 -3.0264 2.8049 0.0000 -0.0000 0.0000 -69.4438 -33.4772 46.5344 92.8692 -59.9689 -62.4845 -0.0000 -0.0000 5.9020 25.6184 27.8334 12.6196 -7.1250 0.0000 -0.0000 -5.6260 60.2431 -2.0958 0.0000 -0.0000 0.0000 70.2937 32.1012 38.5991 -83.9386 59.8607 -54.7531 0.0000 0.0000 14.3588 -34.0940 19.2444 -12.5770 7.1250 -0.0000 -0.0000 -3.7060 -7.1609 -3.2220
-0.3641 17.9862 -2.1382 1.3648 0.6351 -1.5259 0.0000 0.0000 0.0000 -19.9776 -2.7312 -4.5196 1.4887 7.7083 21.8314 0.7746 5.1239 -19.2593 0.4965 -4.5173 -12.5368 0.0000 0.0000 0.0000 17.7830 4.8596 -6.3933 -1.7151 -8.2457 23.4628 -0.4949 -8.0755 -18.6177 -0.2551 3.2497 -8.9748 0.1088 2.1955 7.9249 0.3377 2.9279 3.9459 0.0500 1.4626 -0.3749 -6.8821 -4.3464 0.2159 4.4581 -5.9608 7.7143 2.5129 -3.0380 2.8373 0.0000 0.0000 0.0000 -69.6390 -33.1225 46.8799 91.5957 -59.9904 -61.3819 -0.0000 -0.0000 5.3103 25.3718 28.0634 12.5768 -7.1250 0.0000 -0.0000 -6.0215 60.4218 -2.2694 0.0000 0.0000 0.0000 70.6140 31.6321 39.0279 -82.1593 59.7664 -53.2151 0.0000 0.0000 13.9242 -34.2534 18.2639 -12.0468 7.1250 -0.0000 -0.0000 -3.9610 -8.2570 -3.3594
-0.3656 17.9792 -2.1517 1.4003 0.6597 -1.5137 0.0000 0.0000 0.0000 -19.9965 -2.7401 -4.7853 1.5331 7.8171 22.1599 0.7777 5.0341 -19.2308 0.5086 -4.5713 -12.6898 0.0000 0.0000 0.0000 17.7230 4.8210 -6.6590 -1.7587 -8.3442 23.7646 -0.5103 -7.9669 -18.6886 -0.2560 3.2553 -8.9903 0.1009 2.1986 7.9807 0.3381 2.9309 4.1221 0.0569 1.4642 -0.2241 -6.8838 -4.3870 0.1250 4.4573 -6.0083 7.6868 2.5097 -3.0604 2.8479 -0.0000 0.0000 0.0000 -69.8489 -32.8872 47.1458 90.6054 -59.9986 -60.5243 -0.0000 -0.0000 4.8585 25.2113 28.0133 12.4689 -7.1250 0.0000 -0.0000 -6.1809 60.3304 -2.3162 -0.0000 0.0000 0.0000 70.8443 31.2840 39.3476 -80.6910 59.6700 -51.9471 0.0000 0.0000 13.4275 -34.3895 17.8709 -11.8619 7.1250 -0.0000 -0.0000 -4.1088 -8.6828 -3.4505
